<svg id="Livello_1" data-name="Livello 1" xmlns="http://www.w3.org/2000/svg" xmlns:xlink="http://www.w3.org/1999/xlink" viewBox="0 0 1784.8 1515.18"><defs><style>.cls-1{fill:url(#Sfumatura_senza_nome_258);}.cls-2{fill:url(#Sfumatura_senza_nome_239);}.cls-3{fill:url(#Sfumatura_senza_nome_148);}.cls-4{fill:url(#Sfumatura_senza_nome_144);}.cls-5{fill:url(#Sfumatura_senza_nome_120);}.cls-6{fill:#457cbf;}.cls-7{fill:url(#Sfumatura_senza_nome_107);}.cls-8{fill:#fff;}.cls-9{fill:url(#Sfumatura_senza_nome_153);}.cls-10{fill:url(#Sfumatura_senza_nome_114);}.cls-11{fill:url(#Sfumatura_senza_nome_158);}.cls-12{fill:url(#Sfumatura_senza_nome_159);}.cls-13{fill:url(#Sfumatura_senza_nome_113);}.cls-14{fill:url(#Sfumatura_senza_nome_17);}</style><linearGradient id="Sfumatura_senza_nome_258" x1="2194.93" y1="963.73" x2="2801.47" y2="582.56" gradientTransform="matrix(-1, 0.1, 0.1, 1, 4251.02, -136)" gradientUnits="userSpaceOnUse"><stop offset="0" stop-color="#f7f7f7"/><stop offset="0.11" stop-color="#eceff4"/><stop offset="0.32" stop-color="#cedbea"/><stop offset="0.58" stop-color="#9ebadb"/><stop offset="0.9" stop-color="#5c8cc6"/><stop offset="1" stop-color="#457cbf"/></linearGradient><linearGradient id="Sfumatura_senza_nome_239" x1="583.67" y1="1443.32" x2="1374.57" y2="946.29" gradientTransform="translate(78.05 -136) rotate(5.56)" gradientUnits="userSpaceOnUse"><stop offset="0" stop-color="#f7f7f7"/><stop offset="0.19" stop-color="#dae3ee"/><stop offset="0.6" stop-color="#91b0d7"/><stop offset="1" stop-color="#457cbf"/></linearGradient><linearGradient id="Sfumatura_senza_nome_148" x1="813.16" y1="1078.4" x2="1130.38" y2="1395.62" gradientTransform="matrix(0.55, -0.71, 0.55, 0.71, -273.79, 1013.71)" gradientUnits="userSpaceOnUse"><stop offset="0" stop-color="#457cbf"/><stop offset="0.22" stop-color="#4079bd"/><stop offset="0.48" stop-color="#336fb9"/><stop offset="0.75" stop-color="#1c5fb1"/><stop offset="1" stop-color="#004ba8"/></linearGradient><linearGradient id="Sfumatura_senza_nome_144" x1="857.74" y1="1405" x2="1028.26" y2="1405" gradientTransform="translate(-717.29 1078.32) rotate(-45)" gradientUnits="userSpaceOnUse"><stop offset="0" stop-color="#3fa9f5"/><stop offset="1" stop-color="#457cbf"/></linearGradient><linearGradient id="Sfumatura_senza_nome_120" x1="1024.75" y1="771.25" x2="1314.75" y2="1061.25" gradientTransform="translate(-305.27 1095.5) rotate(-45)" gradientUnits="userSpaceOnUse"><stop offset="0" stop-color="#004ba8"/><stop offset="0.09" stop-color="#0d54ac"/><stop offset="0.29" stop-color="#2566b4"/><stop offset="0.5" stop-color="#3772ba"/><stop offset="0.73" stop-color="#427abe"/><stop offset="1" stop-color="#457cbf"/></linearGradient><linearGradient id="Sfumatura_senza_nome_107" x1="1658.41" y1="1604.47" x2="964.23" y2="1604.47" gradientUnits="userSpaceOnUse"><stop offset="0" stop-color="#3fa9f5"/><stop offset="0.21" stop-color="#3fa6f2"/><stop offset="0.4" stop-color="#419de7"/><stop offset="0.58" stop-color="#438ed5"/><stop offset="0.73" stop-color="#457cbf"/></linearGradient><linearGradient id="Sfumatura_senza_nome_153" x1="783.8" y1="882.76" x2="1028.52" y2="1127.48" gradientTransform="translate(-445.32 935.14) rotate(-45)" gradientUnits="userSpaceOnUse"><stop offset="0" stop-color="#457cbf"/><stop offset="0.23" stop-color="#4179be"/><stop offset="0.48" stop-color="#3470b9"/><stop offset="0.73" stop-color="#1f61b2"/><stop offset="0.99" stop-color="#014ca8"/><stop offset="1" stop-color="#004ba8"/></linearGradient><linearGradient id="Sfumatura_senza_nome_114" x1="654.44" y1="568.12" x2="978.16" y2="891.84" gradientTransform="translate(-277.08 791.02) rotate(-45)" gradientUnits="userSpaceOnUse"><stop offset="0" stop-color="#3fa9f5"/><stop offset="0.29" stop-color="#3fa6f2"/><stop offset="0.55" stop-color="#419de7"/><stop offset="0.79" stop-color="#438ed5"/><stop offset="1" stop-color="#457cbf"/></linearGradient><linearGradient id="Sfumatura_senza_nome_158" x1="1088.54" y1="636.46" x2="1250.04" y2="797.96" gradientTransform="translate(-164.67 1036.88) rotate(-45)" gradientUnits="userSpaceOnUse"><stop offset="0" stop-color="#3fa9f5"/><stop offset="1" stop-color="#004ba8"/></linearGradient><linearGradient id="Sfumatura_senza_nome_159" x1="482.54" y1="606.46" x2="644.04" y2="767.96" gradientTransform="translate(-320.95 599.58) rotate(-45)" xlink:href="#Sfumatura_senza_nome_158"/><linearGradient id="Sfumatura_senza_nome_113" x1="1598.1" y1="1222.83" x2="1598.1" y2="590.74" gradientUnits="userSpaceOnUse"><stop offset="0" stop-color="#457cbf"/><stop offset="0.19" stop-color="#427abe"/><stop offset="0.36" stop-color="#3772ba"/><stop offset="0.52" stop-color="#2565b4"/><stop offset="0.67" stop-color="#0c53ac"/><stop offset="0.73" stop-color="#004ba8"/></linearGradient><linearGradient id="Sfumatura_senza_nome_17" x1="1880.02" y1="574.23" x2="1880.02" y2="2044.74" gradientUnits="userSpaceOnUse"><stop offset="0" stop-color="#004ba8"/><stop offset="0.27" stop-color="#0e60ba"/><stop offset="0.83" stop-color="#3397e6"/><stop offset="1" stop-color="#3fa9f5"/></linearGradient></defs><title>WEATHERMENT</title><path class="cls-1" d="M1513,995c28.59,3,58.53,5.32,89.72,6.81,54.6,2.61,105.88,2.27,153.32,0q112.05-3.56,228.28-10.22,62-3.58,122.66-7.95c11,.24,58.85,0,92-35.21,47.18-50.18,28.55-133.06-7-172-7.25-7.93-20.89-22.39-39-22-22.85.55-45.37,24.31-54.55,60.33a122.5,122.5,0,0,0-13.6-55.71c-6-11.57-14.44-27.73-31.9-37-20.62-11-42.26-6.15-57.42-2.55-53.55,12.7-87.28,53.91-100.81,72.73,7.17-41.71-1.42-78.18-24.24-91.87-3-1.8-11-6.59-20.42-5.1-20.5,3.23-37.15,34.43-39.56,79.11-28-36.41-74.69-36.76-93.15-16.59-14.75,16.12-14.69,48.89,5.1,75.29-25.44-45.54-72.15-59.85-98.25-44.66-22.22,12.94-25.13,44.71-25.52,49.77-.91-29.16-11.72-50.27-21.69-51-10.34-.8-25.37,19.86-29.35,52.32,3.88-21.56-3.44-41.41-17.86-49.77-19-11-41.79,2.83-43.39,3.83-40.08,25.12-14.39,116.08-11.48,126.33A222,222,0,0,0,1513,995Z" transform="translate(-442.46 -558.54)"/><path class="cls-2" d="M1345.92,1270.47C1216.39,1320,1098.08,1328.83,1023,1332c-113,4.77-198.29-.38-223-2-196.25-12.85-294.38-19.27-334.48-81.48-36-55.89-28.3-144.62,12.38-190.6,7.72-8.73,28.53-32.25,52.65-29.64,40.9,4.42,72.83,81.84,73.65,81.47a2.1,2.1,0,0,0-.16-.46c-25.73-65.43,13.73-132.19,65.16-142.86,43.55-9,96.4,22,113,77.32-2.17-74.9,57-130.55,114.9-127.46,43.53,2.32,84.55,37.75,98.44,88,37.69-48.43,102.09-66.44,156.6-45,60.68,23.84,96.37,91.51,81,158.6,28.59-66.6,105.77-92,159.84-62.8,55.74,30.14,64.73,106.39,42.48,151.83C1420.61,1237.28,1392.11,1252.81,1345.92,1270.47Z" transform="translate(-442.46 -558.54)"/><rect class="cls-3" x="762.27" y="1158.66" width="347.5" height="85.2" rx="42.6" ry="42.6" transform="translate(681.12 -868.56) rotate(45)"/><rect class="cls-4" x="829.16" y="1388.74" width="227.69" height="32.53" rx="16.26" ry="16.26" transform="translate(827.23 -813.83) rotate(45)"/><rect class="cls-5" x="964.69" y="886.95" width="410.12" height="58.59" rx="29.29" ry="29.29" transform="translate(548.04 -1117.32) rotate(45)"/><path class="cls-6" d="M1564.5,562.5c-64.55-32.14-337.68,271.8-498,608.13C962.7,1388.51,906.23,1620,984.5,1782.5c3,6.33,16.14,33,40,65,138.5,185.85,437.12,288.59,660,185,114.29-53.12,240-175,268.5-335.5,63.07-354.7-400.29-606.42-373.5-1039.5C1581.62,623.22,1588.15,574.28,1564.5,562.5Z" transform="translate(-442.46 -558.54)"/><path class="cls-7" d="M1108.11,1170.62C1067,1165,1022.2,1272.86,1013,1295c-14.85,35.72-111.57,268.42,17.34,488.58,40.8,69.69,88.85,111.94,105.55,125.93C1304.95,2051,1579.35,2078,1643,1981c29.5-45,11.62-113.34-11.74-154.82-67.86-120.49-222.37-88.64-340.74-175.92-70.61-52.07-147.24-163.5-144.52-432.25C1138.34,1196.76,1126.18,1173.08,1108.11,1170.62Z" transform="translate(-442.46 -558.54)"/><path class="cls-8" d="M1093.44,1319.94c-37.77,1.6-110.44,270.46-1.84,469.95,37.14,68.22,84.87,108.51,100.87,121.31,66.9,53.53,173.17,108.94,206.18,77.77,13.84-13.07,11.78-38.46,7-53.56-13.92-43.62-68.6-57.14-103.24-72.65-118.95-53.27-214-225.16-201.69-352.73,6.38-66.06,43-135,5.74-180.66C1098.81,1320.05,1094.79,1319.88,1093.44,1319.94Z" transform="translate(-442.46 -558.54)"/><rect class="cls-9" x="733.12" y="980.4" width="346.09" height="49.44" rx="24.72" ry="24.72" transform="translate(533.68 -904.9) rotate(45)"/><rect class="cls-10" x="587.4" y="697.28" width="457.81" height="65.4" rx="32.7" ry="32.7" transform="translate(312.8 -921.95) rotate(45)"/><rect class="cls-11" x="1055.09" y="700.9" width="228.4" height="32.63" rx="16.31" ry="16.31" transform="translate(407.17 -1175.28) rotate(45)"/><rect class="cls-12" x="449.09" y="670.9" width="228.4" height="32.63" rx="16.31" ry="16.31" transform="translate(208.46 -755.56) rotate(45)"/><path class="cls-13" d="M1749,1221c-6.23,5.7-18.68-2.84-50.45-13.22-60.85-19.88-115.27-21.24-153.55-18.78-60.19-102.08-130.77-266.13-86-436,21.31-80.86,70-167.6,92-162,23.77,6-12.94,112,14,251C1606.92,1058.21,1772.86,1199.14,1749,1221Z" transform="translate(-442.46 -558.54)"/><path class="cls-14" d="M1769,606.17l-82.37,19.26-22.93,4.21,22.48,4.08,83,16,.1,31.74-82.37,17.36-22.94,4.45,22.07,4.37,83.37,18.93.1,30.62-144.07-40-.09-28.8,84.13-17.65,27.82-5.17-27.85-5-84.23-17.12-.09-27.93,143.82-41.27Z" transform="translate(-442.46 -558.54)"/><path class="cls-14" d="M1763.27,865.71l-17.36-66.32-26.61,7,15.94,60.88-21.77,5.7-15.94-60.88-32.22,8.44,18.17,69.38-22.53,5.9-24.87-95L1761.4,768l24.07,91.91Z" transform="translate(-442.46 -558.54)"/><path class="cls-14" d="M1798.76,904.93l12.72,27.86-98.8,95.51-12.2-26.7,20.67-18.84-19.82-43.4-27.87,3.08-11.76-25.76Zm-74.05,31.86L1738.49,967l39.57-36.06Z" transform="translate(-442.46 -558.54)"/><path class="cls-14" d="M1874.18,1047.5l-19.92,11.37L1835,1025.2l-92.6,52.84-13.5-23.66,92.6-52.84-19.3-33.82,19.92-11.37Z" transform="translate(-442.46 -558.54)"/><path class="cls-14" d="M1767.42,1120.27l109.17-69.76,14.48,22.66-41.62,26.6,27.12,42.44,41.62-26.6,14.48,22.66L1823.5,1208,1809,1185.38l48.73-31.14-27.12-42.44-48.73,31.14Z" transform="translate(-442.46 -558.54)"/><path class="cls-14" d="M1973.33,1243.56l-36.93-57.76-23.18,14.82,33.9,53-19,12.12-33.9-53-28.06,17.94,38.63,60.42-19.62,12.55-52.88-82.71,109.15-69.79,51.18,80Z" transform="translate(-442.46 -558.54)"/><path class="cls-14" d="M2040.58,1320.62a32,32,0,0,1-1.92,15,40.3,40.3,0,0,1-6.29,11,36.33,36.33,0,0,1-10.68,8.79,38.82,38.82,0,0,1-18.1,4.86q-10.06.33-18.54-7.2,1.27,9.58-2.68,16.09t-15.81,13.21l-7.58,4.28q-7.73,4.36-10.14,6.54a10.81,10.81,0,0,0-4,8l-2.83,1.6-14.69-26q3.14-3.19,5.18-4.94a63.74,63.74,0,0,1,9.16-6.48l10.4-6.07q10.71-6.24,12.29-11.85t-4-15.46l-13-23-44.24,25-13-23L2003,1247.21l30.45,54Q2039.74,1312.88,2040.58,1320.62Zm-44.18-39.31-30.31,17.1,14.32,25.37q4.27,7.56,8.24,10.3,7,4.87,16.48-.48,10.26-5.79,10.13-14.25-.06-4.76-4.16-12Z" transform="translate(-442.46 -558.54)"/><path class="cls-14" d="M2120.91,1466.37,2135,1507.3l-136.11,46.83-9.12-26.5,92.07-31.67q4-1.37,11.16-3.74t11.07-3.7L1980.94,1502l-9.51-27.64,105.42-64.91q-3.88,1.33-11,3.89t-11.1,3.92l-92.07,31.67-9.12-26.5,136.12-46.83,14.24,41.39-98.5,61.6Z" transform="translate(-442.46 -558.54)"/><path class="cls-14" d="M2110.72,1646.6l-4.59-68.4-27.45,1.84,4.22,62.79-22.45,1.51-4.22-62.79-33.24,2.23,4.8,71.56-23.24,1.56-6.58-98,129.26-8.68,6.36,94.8Z" transform="translate(-442.46 -558.54)"/><path class="cls-14" d="M2131.41,1682.05l-5.68,27.8-98.8,32.3,88.5,18.08-5,24.71L1983.46,1759l5.42-26.52,100.62-33.27-90.06-18.4,5-24.71Z" transform="translate(-442.46 -558.54)"/><path class="cls-14" d="M2057.07,1903.56l-20.73-9.83,16.61-35L1956.63,1813l11.68-24.62,96.33,45.69,16.69-35.18,20.73,9.83Z" transform="translate(-442.46 -558.54)"/><path class="cls-14" d="M1963,1864.82l-21,30.48L1912,1874.62l21-30.48Z" transform="translate(-442.46 -558.54)"/><path class="cls-14" d="M1882.06,1918.29l13.88-15.65,75.39,66.85-13.88,15.65Z" transform="translate(-442.46 -558.54)"/><path class="cls-14" d="M1827,1982.61q.69-16.37,16.81-30.75t32.47-13.2q21,.57,39.09,20.83,18.43,20.66,16.24,41.21-.69,16.37-16.81,30.75t-32.47,13.2q-20.61-.21-39-20.87Q1825.22,2003.52,1827,1982.61Zm20,2.67q.66,11.78,12,24.48t22.93,14.67q11.65,2,21-6.31t8.75-20.17q-.58-11.85-11.91-24.55t-23-14.63q-11.7-1.93-21,6.4T1847,1985.28Z" transform="translate(-442.46 -558.54)"/></svg>